<?xml version="1.0" encoding="utf-8"?>
<!-- Generator: Adobe Illustrator 23.0.3, SVG Export Plug-In . SVG Version: 6.00 Build 0)  -->
<svg version="1.1" id="ec500484-8e35-4be5-8191-25e4427db5df"
	 xmlns="http://www.w3.org/2000/svg" xmlns:xlink="http://www.w3.org/1999/xlink" x="0px" y="0px" viewBox="0 0 1145.7 770.6"
	 style="enable-background:new 0 0 1145.7 770.6;" xml:space="preserve">
<style type="text/css">
	.st0{opacity:0.1;fill:#1BB1DC;enable-background:new    ;}
	.st1{fill:#1BB1DC;}
	.st2{opacity:0.1;enable-background:new    ;}
	.st3{fill:#3F3D56;}
	.st4{opacity:0.1;fill:none;stroke:#1BB1DC;stroke-width:3;stroke-miterlimit:10;enable-background:new    ;}
	.st5{fill:url(#SVGID_1_);}
	.st6{fill:#E2BAC2;}
	.st7{fill:#FFFFFF;}
	.st8{opacity:0.17;}
	.st9{fill:#F2F2F2;}
	.st10{fill:#F7D77F;}
	.st11{fill:#004686;}
	.st12{fill:#E6E6E6;}
	.st13{opacity:0.28;}
	.st14{fill:#153E49;}
	.st15{fill:#113542;}
	.st16{fill:#1A1A1A;}
	.st17{fill:#5D7A7F;}
	.st18{fill:#DAE7E8;}
	.st19{fill:#688689;}
</style>
<title>calling</title>
<ellipse class="st0" cx="771.8" cy="760.6" rx="142" ry="10"/>
<path class="st0" d="M1145.7,454.1c-0.1,148-120.2,268-268.2,267.9c-14.2,0-28.3-1.1-42.3-3.4H410.5c-16.4,2.3-32.9,3.4-49.5,3.4
	c-11.9,0-23.6-0.6-35.2-1.7C140.8,702.3-0.2,546.8,0,361C0,161.6,161.6,0,361,0c160.6,0,296.6,104.8,343.5,249.8
	c48.4-41.1,109.8-63.7,173.3-63.6C1025.8,186.2,1145.7,306.1,1145.7,454.1z"/>
<path class="st0" d="M1042.8,665.2c-58.8,45.9-134,65.2-207.6,53.5H410.5c-16.4,2.3-32.9,3.4-49.5,3.4c-11.9,0-23.6-0.6-35.2-1.7
	C182,706.2,60.5,607.8,16.8,470.1c34.6-73.9,123.4-126.5,227.6-126.5c101.5,0,188.5,49.9,224.8,120.9c17.9-3.3,36-4.9,54.2-4.9
	c105.2,0,194.8,53.7,228.6,128.7c28-8.5,57.1-12.8,86.4-12.7C924.1,575.6,999.6,611.3,1042.8,665.2z"/>
<path class="st1" d="M351.7,673.2c0,25.6-9.8,39.5-25.9,47.1c-60.6-5.9-118.8-27-169-61.6c1.3-8.7,3.8-17.2,7.3-25.3l45.8,14.2
	l-40.8-24c5.5-9.4,12.6-17.8,20.9-24.9l76.9,23.9l-60.3-35.4c47.5-26,107-8.6,133,38.8c2.4,4.5,4.5,9.1,6.3,13.9l0.2,0.6
	c0.2,0.5,0.3,0.9,0.5,1.4c0.5,1.6,1,3.2,1.5,4.8c0.2,0.6,0.3,1.2,0.5,1.8s0.3,1.1,0.4,1.7s0.2,1,0.3,1.5c0.1,0.3,0.1,0.6,0.2,0.9
	c0.1,0.5,0.2,1,0.3,1.5c0.1,0.7,0.3,1.4,0.4,2.1s0.3,1.5,0.4,2.2s0.2,1.6,0.3,2.4s0.2,1.5,0.3,2.2c0,0.2,0,0.5,0.1,0.7
	c0.1,0.6,0.1,1.3,0.2,1.9c0,0.1,0,0.2,0,0.3c0.1,0.8,0.1,1.6,0.1,2.4c0,0.8,0.1,1.6,0.1,2.3c0,0.1,0,0.2,0,0.2
	C351.7,671.6,351.7,672.4,351.7,673.2z"/>
<path class="st2" d="M351.7,673.2c0,25.6-9.8,39.5-25.9,47.1c-39.2-3.8-77.5-14-113.4-30.2l1.6-1.1c7.4-4.9,15.1-9.9,23.8-11.6
	c7.7-1.5,15.6-0.2,23.4-0.7c13.6-0.8,26.3-6.7,35.8-16.4c5.6-5.8,10-12.8,16.6-17.2c7.2-4.7,16.4-5.8,24.9-4.6
	c2.5,0.4,5,0.9,7.4,1.5l0.2,0.6c0.2,0.5,0.3,0.9,0.5,1.4c0.5,1.6,1,3.2,1.5,4.8c0.2,0.6,0.3,1.2,0.5,1.8s0.3,1.1,0.4,1.7
	s0.2,1,0.3,1.5c0.1,0.3,0.1,0.6,0.2,0.9c0.1,0.5,0.2,1,0.3,1.5c0.1,0.7,0.3,1.4,0.4,2.1s0.3,1.5,0.4,2.2s0.2,1.6,0.3,2.4
	s0.2,1.5,0.3,2.2c0,0.2,0,0.5,0.1,0.7c0.1,0.6,0.1,1.3,0.2,1.9c0,0.1,0,0.2,0,0.3c0.1,0.8,0.1,1.6,0.1,2.4c0,0.8,0.1,1.6,0.1,2.3
	c0,0.1,0,0.2,0,0.2C351.7,671.6,351.7,672.4,351.7,673.2z"/>
<path class="st3" d="M935.5,689.9c0,2.6-0.3,5.2-0.8,7.8c-0.1,0.5-0.2,1-0.3,1.4c-2.8,11.4-10.8,19.7-20.4,20.3c-0.3,0-0.6,0-1,0
	c-10.1,0-18.7-8.7-21.5-20.7c-0.1-0.3-0.2-0.6-0.2-1c-0.5-2.6-0.8-5.2-0.8-7.8c0-16.3,10.1-29.5,22.5-29.5S935.5,673.6,935.5,689.9z
	"/>
<path class="st2" d="M935.5,689.9c0,2.6-0.3,5.2-0.8,7.8c-0.1,0.5-0.2,1-0.3,1.4c-0.3,0-0.7,0-1,0c-2.5-0.1-4.9-0.5-7.4-1
	c-2.1,0.7-4.3,1.2-6.6,1.5c-1.7,0.3-3.4,0.4-5.1,0.5c-0.6,0-1.2,0-1.7,0c-2.1,0-4.1-0.1-6.2-0.4c-3.3-0.4-6.5-1.2-9.7-2.4
	c-1.7,0.6-3.5,1-5.2,1.4c-0.1-0.3-0.2-0.6-0.2-1c-0.5-2.6-0.8-5.2-0.8-7.8c0-16.3,10.1-29.5,22.5-29.5S935.5,673.6,935.5,689.9z"/>
<path class="st1" d="M983.5,635c0-7.2-1.7-14.2-4.9-20.6l-26.5,8.2l23.2-13.7c-7.9-11.4-20.5-18.6-34.4-19.6
	c-1.1-1.6-2.3-3.2-3.6-4.7l-38,11.8l31.2-18.3c-20-15.4-48.7-11.6-64.1,8.4c-3.6,4.8-6.3,10.2-7.9,16l32.5,37.5l-35.3-25.5
	c-20.6,14.6-25.5,43.2-10.8,63.8c11.7,16.4,32.7,23.3,51.8,16.9c9.4,3.5,19.7,3.7,29.3,0.8c24.7,5.4,49.1-10.2,54.5-34.9
	c0.7-3.2,1.1-6.5,1.1-9.8c0-1,0-2-0.1-3C982.8,644,983.5,639.5,983.5,635z"/>
<path class="st2" d="M982.7,643.5c-14-2.6-28.3-2.8-42.3-0.5c-15.9,2.6-32.1,8.4-47.7,4.2c-9.1-2.5-17-8.2-25.9-11.4
	c-8.6-3-17.9-3.6-26.8-1.6c-9.7,23.3,1.3,50.1,24.6,59.9c10.2,4.3,21.6,4.7,32.1,1.2c9.4,3.5,19.7,3.7,29.3,0.8
	c24.7,5.4,49.1-10.2,54.5-34.9c0.7-3.2,1.1-6.5,1.1-9.8c0-1,0-2-0.1-3C982,646.7,982.4,645.1,982.7,643.5z"/>
<path class="st4" d="M404.6,66.4c-2.3-1.4-5.5-0.1-7.1,2.1s-2,5-2.5,7.6c-0.9,5.9-1.5,12.7,2.5,17.2c-6.5-19.8-25.3-34.9-46-37.1"/>
<path class="st4" d="M808.6,392.6c-1.5-0.9-3.5,0-4.5,1.4c-0.9,1.5-1.5,3.2-1.6,4.9c-0.6,3.8-1,8.2,1.6,11
	c-4.5-12.9-15.9-22.2-29.5-23.9"/>
<path class="st4" d="M299.1,263.4c-1.5-0.9-3.5,0-4.5,1.4c-0.9,1.5-1.5,3.2-1.6,4.9c-0.6,3.8-1,8.2,1.6,11
	c-4.5-12.9-16-22.2-29.5-23.9"/>
<linearGradient id="SVGID_1_" gradientUnits="userSpaceOnUse" x1="518.47" y1="-58.4559" x2="518.47" y2="287.8435" gradientTransform="matrix(-1 0 0 -1 1294.85 705.29)">
	<stop  offset="0" style="stop-color:#808080;stop-opacity:0.25"/>
	<stop  offset="0.54" style="stop-color:#808080;stop-opacity:0.12"/>
	<stop  offset="1" style="stop-color:#808080;stop-opacity:0.1"/>
</linearGradient>
<path class="st5" d="M696.8,731c1,1.9,2.9,3,4.7,4.1c12.6,7.2,25.8,13.2,39.6,17.8c1.3,0.7,2.9,0.3,3.6-1c0.1-0.2,0.2-0.3,0.2-0.5
	c1.6-2.7,3.3-7,2.9-10.5c1.3-0.8,2.2-2,2.6-3.5c0.5-1.8,1.4-3.5,2.4-5c1.9-2.8,4.1-5.7,4.4-9.1c0-1.2,0.1-2.4,0.3-3.6
	c0.5-1.6,1.9-2.6,3-3.9c1.7-2,2.4-4.6,3.2-7.1c3.1-10.4,6.2-20.9,8.8-31.5c0.8-3.4,1.6-6.9,2.8-10.2c1-2.9,2.3-5.7,3.5-8.5
	c4.5-10.1,9.8-19.9,15.8-29.3c0.9,3.1,2.1,6.2,3.4,9.2c0.7,1.5,1.4,3.1,2.1,4.6c2.6,5.8,2.1,13.3,5.3,18.8c1.3,2.3,2.6,4.5,3.9,6.8
	c0.7,1.1,1.3,2.3,1.7,3.6c0.2,0.9,0.2,1.8,0.4,2.7c0.7,4,3.9,6.8,5.7,10.4c1.7,3.3,2,7,3,10.6c2.4,8.3,8.2,15.5,8.8,24.2
	c0.1,2.3,0,4.7-0.2,7c-0.1,4.1,0.1,8.2,0.8,12.2c0.1,0.4,0.2,0.8,0.3,1.2c-5.1,7.6-13,13-22,14.9c-1.7,0.3-3.7,0.7-4.5,2.3
	c-1.1,1.9,0.1,4.4,2,5.4s4,0.9,6,0.7c14.3-1.2,28.5-3.8,42.4-7.8c0.7-0.1,1.3-0.5,1.8-1c0.5-0.7,0.7-1.6,0.6-2.5
	c0-3.2-0.8-6.4-2.2-9.3l1-0.3c0.6-4-1.5-7.9-3.1-11.6c-2.8-6.5-4.3-13.5-6.5-20.2c-4.2-13-11.1-25.1-12.7-38.7
	c-0.5-3.7-1.6-7.5-1.8-11.3c-0.5-7.7-1-15.4-2.7-22.8c-1.4-6.1-3.6-12-5-18.2s-1.8-12.7,0.2-18.7c0.6-1.7,1.4-3.3,1.9-5
	c2-6.6,0.1-13.8-1.8-20.4c-0.6-2.1-1.2-4.2-1.8-6.3c-0.8-2.8-1.6-5.5-2.5-8.2c0.1-0.1,0.2-0.2,0.3-0.3c1.8-2,1.7-5.1,3-7.5
	c0.6-1.2,1.6-2.2,2.2-3.4c1.2-2.6,1.6-5.5,0.9-8.3c-0.5-2.8-1.6-5.5-2.4-8.2c-2.2-7.5-2.3-15.4-0.5-23c0.8-3.2,2-6.4,2.2-9.7
	c0.1-2.2-0.1-4.5-0.6-6.6c-1.5-8.4-4.6-16.9-10.8-22.5c-3.3-3-7.7-5.6-8.1-10.2c-0.5-0.2-1.1-0.2-1.7-0.1c-0.3-1-0.5-2.1-0.6-3.2h0
	c0.3,0,0.6,0,0.9,0c0.3,0,0.5-0.1,0.7-0.2c0.1-0.1,0.2-0.2,0.4-0.3c0.4-0.4,0.7-0.8,1-1.3c0.4-0.7,0.8-1.4,1.1-1.9s0.8-1.3,1.2-2
	c1.2-2,2.3-4,3.3-6.1v-0.1c0.1-0.2,0.2-0.4,0.3-0.6l0.1-0.3l0.2-0.4c0-0.1,0.1-0.2,0.1-0.3s0.1-0.3,0.2-0.4l0.1-0.3
	c0-0.1,0.1-0.2,0.1-0.4c0-0.1,0.1-0.2,0.1-0.3c0-0.1,0.1-0.2,0.1-0.4s0.1-0.2,0.1-0.4s0.1-0.2,0.1-0.4l0.1-0.4
	c0-0.1,0.1-0.2,0.1-0.4l0.1-0.4l0.1-0.4l0.1-0.4c0-0.1,0-0.2,0.1-0.3s0-0.3,0.1-0.4s0-0.2,0-0.3l0.1-0.4v-0.3c0-0.1,0-0.3,0-0.4
	s0-0.2,0-0.3s0-0.3,0-0.4v-0.2c0-0.1,0-0.3,0-0.4s0-0.2,0-0.3s0-0.3,0-0.4s0-0.2,0-0.3c0-0.4-0.1-0.8-0.2-1.2
	c-0.7-2.3-2-4.4-3.9-5.9c-1.8-1.5-3.8-2.7-6-3.6c-0.5-0.2-1-0.5-1.4-0.9c-0.5-0.7-0.9-1.5-1.2-2.2c-0.9-1.5-2.6-2.2-4.3-2.6
	s-3.4-0.7-4.8-1.7c-0.1-0.1-0.3-0.2-0.4-0.2c-0.2,0-0.4,0-0.6,0.1l-3.9,1.7c-0.2-1-1.1-1.7-2.1-1.5c0,0,0,0,0,0
	c-0.9,0.2-1.8,0.7-2.5,1.4c-0.2-0.2-0.3-0.6-0.2-0.9l-3,2c-0.4,0.2-1,0.3-1-0.2c-1.7,1.8-3.1,3.8-4.3,6c-0.4,0.7-0.7,1.4-0.9,2.1
	l0,0c0,0.1-0.1,0.3-0.1,0.5c0,0,0,0.1,0,0.1c0,0.1-0.1,0.3-0.1,0.4c0,0,0,0.1,0,0.1c0,0.2,0,0.4,0,0.5l0,0c0,0.2,0,0.4,0,0.6
	c0.1,1.1,0.7,2.1,1.7,2.7c0.4,0.1,0.8,0.2,1.2,0.2c0.9-0.1,1.7-0.3,2.5-0.5c0.3-0.1,0.5-0.1,0.8-0.1c0.1,0,0.3,0,0.4,0
	c0.5,0,1,0.2,1.4,0.5l0.1,0.1c-4.4,3.2-7,8.3-7,13.8c0,2.6,0.6,5.3,1.8,7.6c-0.8,0.5-1.3,1.3-1.3,2.3c-0.3-0.8-0.4-1.6-0.4-2.4
	c-1.6-0.3-2.8,1.6-3.4,3.2c-1.2,3.7-2.2,7.5-2.8,11.4c-0.5,2.6-1,5.1-1.5,7.7s-1,5.3-1.4,8c-0.9,6.9-0.6,14,0.9,20.8
	c-0.1,0.2-0.2,0.5-0.3,0.7c-0.3,0.8-1.2,1.5-1.3,2.3c-0.5,5.1,2.7,9.7,5.7,13.7c0.2,0.4,0.6,0.8,1,1c0.4,0.2,0.9,0.2,1.4,0.2
	c1.2-0.1,2.4-0.2,3.6-0.4c0.1,0.7,0.2,1.3,0.2,2c0.9,7.2,2.3,14.4,2.3,21.6s-1.4,14.6,1.4,21c0.5,1.1,1.3,2,1.4,3.1h0.2
	c-1.7,3.5-3.1,7-4.1,10.7c-1.1,4.3-1.3,8.9-2.6,13.2c-1,3.7-2.8,7-4.2,10.6c-2.3,5.8-3.6,11.9-4,18.1c0,2.9-0.6,5.7-1.7,8.3
	c-1.6,3.2-3,6.4-4.2,9.8c-2,5.9-5.4,11.6-6,17.9c-0.3,3.6,0.2,7.4-1.3,10.6c-0.6,1.3-1.4,2.3-2.1,3.5c-1,1.9-1.8,3.9-2.3,6
	l-9.9,32.8c-0.4,1.8-1.2,3.5-2.4,4.9c-0.9,0.9-2.1,1.4-3,2.3c-1.4,1.4-1.8,3.5-1.8,5.6c-1.1,0.2-2.1,0.5-3.1,1
	c-8.5,3.6-18,3.6-26.5,0c-1.6-0.7-3.4-1.5-5-0.7C696.1,726.3,695.8,729.1,696.8,731z M775.7,482.3c0.6-2.7,1.7-5.3,3.3-7.6
	c2.2-3.7,4.6-7.3,6.7-11.1l0.6-0.6c0.2,0.5,0.3,1,0.5,1.5c0.4,1.3,0.7,2.6,0.9,3.9c0.3,1.6,0.4,3.3,0.3,5l-0.1,0.1
	c-0.8,0.5-1.5,1.2-1.9,2.1c-0.3,0.9-0.3,1.8,0,2.6l-0.1,0.1l0.1-0.1c0.3,1.4,1,2.8,0.8,4.2c-0.2,1.7-1.6,2.9-2.4,4.4
	c-2,3.5-1.4,8.8-4.7,10.9l-0.1,0.1l0,0c-1.4-0.3-2.6-1.3-3.2-2.7l0,0C776.6,490.9,775,486.6,775.7,482.3z"/>
<path class="st3" d="M857.8,752.5c0.1,0.9-0.1,1.7-0.6,2.5c-0.5,0.5-1.2,0.9-1.9,1c-14.4,4-29.2,6.5-44.1,7.7
	c-2.1,0.2-4.4,0.3-6.3-0.7s-3.2-3.5-2-5.3c0.9-1.5,3-1.9,4.7-2.2c9.4-1.8,17.7-7.2,23.2-15c0.7-1.1,1.5-2.1,2.5-2.9
	c1.9-1.3,4.5-1,6.7-0.5c4,0.8,9.3,1.8,12.9,3.8S857.7,748.7,857.8,752.5z"/>
<path class="st2" d="M857.8,752.5c0.1,0.9-0.1,1.7-0.6,2.5c-0.5,0.5-1.2,0.9-1.9,1c-14.4,4-29.2,6.5-44.1,7.7
	c-2.1,0.2-4.4,0.3-6.3-0.7s-3.2-3.5-2-5.3c0.9-1.5,3-1.9,4.7-2.2c9.4-1.8,17.7-7.2,23.2-15c0.7-1.1,1.5-2.1,2.5-2.9
	c1.9-1.3,4.5-1,6.7-0.5c4,0.8,9.3,1.8,12.9,3.8S857.7,748.7,857.8,752.5z"/>
<path class="st3" d="M741.5,751.5c-0.4,0.8-1.1,1.4-1.9,1.7c-0.7,0.1-1.5,0-2.1-0.3c-14.3-4.6-28.1-10.4-41.2-17.6
	c-1.9-1-3.8-2.2-4.9-4s-0.7-4.7,1.2-5.6c1.6-0.8,3.5,0,5.2,0.7c8.9,3.6,18.7,3.6,27.6,0c1.2-0.6,2.4-0.9,3.7-1.1
	c2.3,0,4.3,1.6,6,3.2c2.9,2.9,6.8,6.6,8.8,10.2S743.6,748.3,741.5,751.5z"/>
<path class="st2" d="M741.5,751.5c-0.4,0.8-1.1,1.4-1.9,1.7c-0.7,0.1-1.5,0-2.1-0.3c-14.3-4.6-28.1-10.4-41.2-17.6
	c-1.9-1-3.8-2.2-4.9-4s-0.7-4.7,1.2-5.6c1.6-0.8,3.5,0,5.2,0.7c8.9,3.6,18.7,3.6,27.6,0c1.2-0.6,2.4-0.9,3.7-1.1
	c2.3,0,4.3,1.6,6,3.2c2.9,2.9,6.8,6.6,8.8,10.2S743.6,748.3,741.5,751.5z"/>
<path class="st3" d="M817.8,560c1.5,4,2.7,8,4,12l1.9,6.2c2,6.5,4,13.6,1.9,20.1c-0.5,1.7-1.4,3.3-2,5c-2.1,5.9-1.6,12.4-0.2,18.4
	s3.7,11.9,5.2,18c1.8,7.4,2.3,15,2.8,22.5c0.3,3.7,1.4,7.5,1.9,11.2c1.7,13.4,8.8,25.4,13.3,38.2c2.3,6.6,3.9,13.5,6.8,19.9
	c1.7,3.7,3.8,7.5,3.2,11.4c-8.1,2.9-17.1,2.8-24.8-1.1c-1-0.4-1.7-1.3-1.7-2.3c-0.7-4-1-8-0.8-12c0.2-2.3,0.2-4.6,0.2-6.9
	c-0.6-8.5-6.7-15.6-9.1-23.8c-1-3.5-1.5-7.2-3.2-10.4c-1.9-3.5-5.3-6.3-6-10.3c-0.2-0.9-0.2-1.8-0.4-2.7c-0.4-1.3-1-2.4-1.8-3.5
	l-4.1-6.7c-3.3-5.4-2.9-12.8-5.6-18.6c-0.7-1.5-1.5-3-2.2-4.6c-1.4-3-2.5-6-3.5-9.1c-6.2,9.2-11.7,18.9-16.5,28.9
	c-1.4,2.7-2.6,5.5-3.7,8.4c-1.2,3.3-2,6.7-2.9,10.1c-2.7,10.5-6,20.7-9.2,31c-0.8,2.5-1.6,5-3.3,7c-1.1,1.2-2.6,2.3-3.1,3.8
	c-0.3,1.2-0.4,2.4-0.4,3.6c-0.3,3.4-2.7,6.2-4.6,9c-1.1,1.5-2,3.2-2.5,5c-0.9,3.1-4.1,4.9-7.2,4c-0.3-0.1-0.5-0.2-0.8-0.3h-0.1
	c-0.8-0.4-1.6-0.8-2.3-1.4c-1.9-1.2-3.7-2.5-5.4-4c-1.5-1.4-2.8-3-4-4.7c-0.7-1-0.5-2.5,0.6-3.2c0.2-0.1,0.4-0.2,0.6-0.3l0,0
	c-0.2-2.8-0.3-6,1.7-7.9c0.9-0.9,2.2-1.4,3.2-2.2c1.2-1.3,2.1-3,2.5-4.8c3.4-10.7,6.8-21.5,10.2-32.2c0.6-2.1,1.4-4.1,2.4-5.9
	c0.7-1.2,1.6-2.3,2.2-3.5c1.5-3.2,1-6.9,1.4-10.4c0.7-6.2,4.1-11.8,6.2-17.6c1.3-3.3,2.7-6.5,4.4-9.7c1.1-2.6,1.7-5.4,1.8-8.2
	c0.4-6.1,1.8-12.2,4.2-17.9c1.5-3.5,3.3-6.8,4.4-10.4c1.3-4.2,1.5-8.7,2.7-13c1.1-3.7,2.6-7.2,4.3-10.6c1.5-3,2.9-6.1,5.3-8.4
	c3.9-3.8,9.7-5.1,15.2-5.2S812.3,560.6,817.8,560z"/>
<path class="st6" d="M784.2,482.2c7-4.2,14-8.5,20.9-12.9c-1.6-2.2-2.6-4.9-2.6-7.7c0-0.1,0-0.2,0-0.3c-0.1-2.7,0.9-5-2.5-4.7
	c-3.3,0.4-6.5,1.1-9.6,2c-0.9,0.2-8.7,3.1-9,2.8c1.7,2.1,3,4.5,3.8,7.1c0.4,1.3,0.7,2.5,0.9,3.8
	C786.8,475.8,786.8,479.8,784.2,482.2z"/>
<path class="st3" d="M774.8,528.3c0.9,7.1,2.4,14.2,2.4,21.3s-1.4,14.4,1.5,20.8c0.5,1.1,1.4,1.9,1.5,3.1c4,0.7,7.9-1.2,11.7-2.5
	c3.5-1.2,7.1-2,10.8-2.4c3-0.3,6.1-0.3,9.1-0.9c3-0.5,5.7-1.9,7.8-4c1.8-2,1.8-5,3.1-7.3c0.7-1.2,1.6-2.2,2.3-3.4
	c1.3-2.5,1.6-5.5,0.9-8.2c-0.7-2.7-1.5-5.4-2.5-8.1c-2.3-7.4-2.4-15.2-0.5-22.7c0.8-3.2,2.1-6.3,2.3-9.6c0.1-2.2-0.2-4.4-0.6-6.5
	c-1.6-8.3-4.8-16.7-11.2-22.2c-3.4-2.9-8.1-5.6-8.4-10c-1.5-0.6-3.1,0.4-4.3,1.3l-14.3,10.5c-0.8,0.5-1.5,1.2-2,2.1
	c-0.9,2.1,1.2,4.5,0.8,6.8c-0.2,1.7-1.7,2.9-2.5,4.3c-2.1,3.4-1.4,8.7-4.8,10.8c-0.3,0.6-0.6,1.3-0.9,2c-1.2,3.5-2,7.1-2.5,10.8
	C773.9,518.9,774,523.6,774.8,528.3z"/>
<path class="st2" d="M781.4,461.5c1.7,2.1,3,4.5,3.8,7.1c1.1,0.3,2.3,0.4,3.5,0.4c5.8,0,9.7-6.7,12.6-11.3c-0.1-2.7,2.1-1.3-1.3-1
	c-3.3,0.4-6.5,1.1-9.6,2C789.5,458.9,781.7,461.8,781.4,461.5z"/>
<circle class="st6" cx="788.7" cy="451.2" r="16.4"/>
<path class="st3" d="M779.9,466.9l-3.8-4.1c-1.2-1.4-1.1-3.5,0.2-4.7l12.7-11.6c1.4-1.2,3.5-1.1,4.7,0.2l3.8,4.1
	c1.2,1.4,1.1,3.5-0.2,4.7l-12.7,11.6C783.3,468.4,781.2,468.3,779.9,466.9z"/>
<path class="st2" d="M779.9,466.9l-3.8-4.1c-1.2-1.4-1.1-3.5,0.2-4.7l12.7-11.6c1.4-1.2,3.5-1.1,4.7,0.2l3.8,4.1
	c1.2,1.4,1.1,3.5-0.2,4.7l-12.7,11.6C783.3,468.4,781.2,468.3,779.9,466.9z"/>
<circle class="st7" cx="789.7" cy="454.2" r="1.4"/>
<path class="st2" d="M774.8,528.3c12.6-1.9,24.1-9.4,32.8-18.8c1.6-1.5,2.9-3.4,3.7-5.5c0.4-1.8,0.6-3.6,0.5-5.4l-0.2-7.2
	c-0.1-3.2-0.2-6.4-1.8-9.2s-4.9-4.8-7.9-3.6c-7.7,3-12.8,9.9-17.2,16.9c-1.3,2.2-2.6,4.3-4.1,6.3c-0.8,1-1.8,1.9-3,1.8
	c-0.3,0-0.5-0.1-0.8-0.2c-1.2,3.5-2,7.1-2.5,10.8C773.9,518.8,774,523.6,774.8,528.3z"/>
<path class="st6" d="M773.6,486.1c0.6-2.7,1.8-5.3,3.4-7.5c4.9-7.7,10.4-15.1,13-23.8c-3.8,0.7-4.4,7.3-8.3,7.5l0.3-4.7
	c0-0.8,0-1.8-0.7-2.2s-1.8,0.1-2.2,0.9s-0.5,1.8-0.9,2.6s-1.3,1.5-2.2,1.2l-0.3-1.6c-1.3-0.3-2.6,0.6-2.8,1.9c0,0.2-0.1,0.4,0,0.6
	c-0.3-0.8-0.4-1.5-0.4-2.3c-1.7-0.3-3,1.6-3.6,3.2c-1.3,3.7-2.2,7.4-2.9,11.3l-1.6,7.6c-0.5,2.6-1.1,5.3-1.5,7.9
	c-0.9,7-0.6,14.2,1.1,21.1c2.1-1.2,4.1-2.4,6.1-3.8c1.5-1.3,3.2-2.7,3.8-4.7C775.3,496.2,772.8,491.1,773.6,486.1z"/>
<path class="st3" d="M801.9,476.4c2.9-1.2,6.3,0.8,7.9,3.6s1.7,6,1.8,9.2l0.2,7.2c0.2,1.8,0,3.6-0.4,5.4c-0.8,2.1-2.1,4-3.7,5.5
	c-9.7,10.4-22.7,18.5-36.9,19.2c-0.5,0.1-1,0-1.5-0.2c-0.4-0.3-0.7-0.6-1-1c-3.2-3.9-6.5-8.5-6-13.5c0.1-0.8,1-1.5,1.3-2.3
	c1.9-4.5,5.4-8.2,9.8-10.4l0.9-0.4c0.7,1.3,1.9,2.3,3.4,2.6c1.2,0.1,2.2-0.8,3-1.8c1.5-2,2.9-4.2,4.1-6.4
	C789.2,486.3,794.2,479.5,801.9,476.4z"/>
<path class="st3" d="M800.9,461.9c-1.4-0.7-1.6-2.6-1.8-4.1c-0.2-1.8-0.4-3.6-0.8-5.4c-0.4-2-1.1-4.1-2.8-5.1
	c-1.9-1.2-4.5-0.6-5.7,1.3c-0.3,0.5-0.5,1.1-0.6,1.7c0,0.3-0.1,0.7-0.3,0.9c-0.1,0.1-0.3,0.2-0.5,0.3c-1.6,0.4-3.3-0.6-3.8-2.1
	c-0.3-1-0.1-2.3-0.8-3.1s-1.5-0.8-2.2-1.3c-0.8-0.8-1.3-2-1.1-3.2c0-1.5,0.2-3.3-1-4.2c-1.8-1.4-4.5,0.8-6.7,0
	c-1.2-0.6-1.9-1.9-1.8-3.2c0.1-1.3,0.6-2.6,1.3-3.7c1.3-2.1,2.8-4.1,4.5-5.9c0,0.4,0.7,0.4,1.1,0.1l3.2-1.9c-0.1,0.3,0,0.7,0.3,0.9
	c0.7-0.7,1.6-1.2,2.6-1.4c1-0.2,2,0.5,2.2,1.5l4-1.7c0.3-0.2,0.8-0.2,1.1,0.1c1.4,1,3.3,1.3,5,1.7s3.5,1.1,4.5,2.6
	c0.3,0.8,0.7,1.5,1.3,2.2c0.4,0.4,1,0.7,1.5,0.9c2.3,0.9,4.4,2.1,6.3,3.5c1.9,1.5,3.4,3.5,4.1,5.9c1.1,3.9-0.5,8-2.3,11.6
	c-1.4,2.7-2.9,5.4-4.6,8c-0.6,1-1.5,2.9-2.5,3.5C803.2,462.5,802,462.4,800.9,461.9z"/>
<path class="st2" d="M772.8,433.4c2.1,0.8,4.8-1.4,6.7,0c1.2,0.9,1,2.7,1,4.2c-0.1,1.2,0.3,2.4,1.1,3.2c0.7,0.5,1.7,0.7,2.2,1.3
	s0.5,2.1,0.8,3.1c0.5,1.6,2.2,2.5,3.8,2.1c0.2,0,0.3-0.1,0.5-0.3c0.2-0.3,0.3-0.6,0.3-0.9c0.2-2.3,2.3-3.9,4.6-3.7
	c0.6,0.1,1.2,0.3,1.7,0.6c1.7,1.1,2.4,3.2,2.8,5.1c0.4,1.8,0.7,3.6,0.8,5.4c0.1,1.6,0.4,3.4,1.8,4.1c1.1,0.5,2.3,0.6,3.4,0.3
	c1-0.6,1.9-2.5,2.5-3.5c1.7-2.6,3.3-5.2,4.6-8c1.1-2.1,2-4.4,2.5-6.8c0.7,3.7-0.8,7.5-2.5,10.9c-1.4,2.7-2.9,5.4-4.6,8
	c-0.6,1-1.5,2.9-2.5,3.5c-1.1,0.3-2.4,0.2-3.4-0.3c-1.4-0.7-1.6-2.6-1.8-4.1c-0.2-1.8-0.4-3.6-0.8-5.4c-0.4-2-1.1-4.1-2.8-5.1
	c-1.9-1.2-4.5-0.6-5.7,1.3c-0.3,0.5-0.5,1.1-0.6,1.7c0,0.3-0.1,0.7-0.3,0.9c-0.1,0.1-0.3,0.2-0.5,0.3c-1.6,0.4-3.3-0.6-3.8-2.1
	c-0.3-1-0.1-2.3-0.8-3.1s-1.5-0.8-2.2-1.3c-0.8-0.8-1.3-2-1.1-3.2c0-1.5,0.2-3.3-1-4.2c-1.8-1.4-4.5,0.8-6.7,0
	c-1.2-0.6-1.9-1.9-1.8-3.2c0-0.7,0.2-1.4,0.5-2.1C771.8,432.7,772.3,433.2,772.8,433.4z"/>
<path class="st8" d="M767.5,103.9l-0.2-0.3H745H449.5l0.7,0.8h-2.9c-18.5,0-33.5,15-33.5,33.5V476h-28l-0.2,0.3
	c-13.8,16.6-13.8,40.6,0,57.1l0.2,0.3c0,0,10.6,0,28,0h289.7h0.4c20.1,0,36.4-16.3,36.4-36.4V162.1c0,0,0-0.3,0-0.8h26.9l0.2-0.3
	C781.2,144.5,781.2,120.4,767.5,103.9z"/>
<g>
	<g>
		<path class="st9" d="M439.1,153h317.7l0.2-0.3c13.8-16.6,13.8-40.6,0-57.1l-0.2-0.3h-22.2H439.1l1.6,1.7
			c14.7,15.9,14.2,40.6-1.3,55.8L439.1,153z"/>
		<path class="st7" d="M693.5,525.5H403.4V129.5c0-18.5,15-33.5,33.5-33.5h283.8c0,0,29.5-1.7,28.9,0c-20.7,0.4-19.6,57.7-19.6,57.7
			v335.2C730,509.2,713.7,525.5,693.5,525.5z"/>
		<path class="st9" d="M693.1,525.5c-12.9,0-317.7,0-317.7,0l-0.2-0.3c-13.8-16.6-13.8-40.6,0-57.1l0.2-0.3h317.7l-1.6,1.7
			C676.8,485.3,674.3,512.4,693.1,525.5C693.1,525.5,706.1,525.5,693.1,525.5z"/>
	</g>
	<rect x="474" y="160.1" class="st10" width="197.4" height="16.6"/>
	<rect x="610.6" y="442.4" class="st11" width="88.3" height="5.4"/>
	<rect x="446.6" y="207.9" class="st12" width="252.3" height="6.7"/>
	<rect x="446.6" y="241.1" class="st12" width="252.3" height="6.7"/>
	<rect x="446.6" y="274.2" class="st12" width="252.3" height="6.7"/>
	<rect x="446.6" y="307.3" class="st12" width="252.3" height="6.7"/>
	<rect x="446.6" y="340.4" class="st12" width="252.3" height="6.7"/>
	<rect x="446.6" y="406.7" class="st12" width="252.3" height="6.7"/>
	<rect x="446.6" y="373.5" class="st12" width="252.3" height="6.7"/>
</g>
<path class="st13" d="M884.3,185.2l-2.9-1.8l-0.8-0.5l-1.4-0.9l4.5-7.4c0.3-0.5,0.1-1.1-0.3-1.3L858.5,158c-0.5-0.3-1.1-0.1-1.3,0.3
	l-4.5,7.4l-1.7-1c-0.4-0.2-0.9-0.1-1.1,0.3l-1.9,3.2c-0.2,0.4-0.1,0.9,0.3,1.1l1.7,1l-39.1,63.5c-0.3,0.5-0.1,1.1,0.3,1.3l2.3,1.4
	l-85.2,138.6l-1.8-1.1c-0.6-0.4-1.5-0.2-1.9,0.4l0,0c-0.4,0.6-0.2,1.5,0.4,1.9l2,1.2l-0.5,1l-2.1-1.3c-0.6-0.4-1.5-0.2-1.9,0.4l0,0
	c-0.4,0.6-0.2,1.5,0.4,1.9l2.4,1.5l-7.9,17.7l0,0l-8.7,19.5l-4.8,3l-4.4,18.6l2.4,1.5l15-12.3l0.8-5.2l14.2-16.1l0,0l0,0l12.9-14.6
	l2.1,1.3c0.6,0.4,1.5,0.2,1.9-0.4l0,0c0.4-0.6,0.2-1.5-0.4-1.9l-1.7-1.1l0.7-0.8l1.6,1c0.6,0.4,1.5,0.2,1.9-0.4l0,0
	c0.4-0.6,0.2-1.5-0.4-1.9l-1.3-0.8l81.3-132.2l3.9-6.4l1.7,1c0.5,0.3,1.1,0.1,1.3-0.3l39.1-63.5l0.7,0.4c0.4,0.2,0.5,0.7,0.3,1.1
	l-25.7,41.8c-0.2,0.4-0.1,0.9,0.3,1.1l3,1.9c0.4,0.2,0.9,0.1,1.1-0.3l28.4-46.3C884.8,185.9,884.6,185.4,884.3,185.2z"/>
<g>
	<polygon class="st14" points="725.1,404 710.4,395.2 720.4,372.3 815.4,213.8 836.6,226.5 741.6,384.8 	"/>
	<path class="st15" d="M827.4,245.6l-25.1-15c-0.5-0.3-0.6-0.9-0.3-1.3l45.5-75.9c0.3-0.5,0.9-0.6,1.3-0.3l25.1,15
		c0.5,0.3,0.6,0.9,0.3,1.3l-45.5,75.9C828.4,245.7,827.8,245.8,827.4,245.6z"/>
	<path class="st16" d="M872,178l-0.8-0.5l-29.9-17.9c-0.4-0.2-0.9-0.1-1.1,0.3l-1.9,3.2c-0.2,0.4-0.1,0.9,0.3,1.1l29.2,17.5
		c0.4,0.2,0.5,0.7,0.3,1.1l-25.2,42c-0.2,0.4-0.1,0.9,0.3,1.1l3,1.8c0.4,0.2,0.9,0.1,1.1-0.3l27.9-46.6c0.2-0.4,0.1-0.9-0.3-1.1
		L872,178z"/>
	<polygon class="st17" points="711,420.3 701.9,414.8 720.4,372.3 741.5,384.9 	"/>
	<polygon class="st18" points="711,420.3 701.9,414.8 697.1,417.9 693,436.5 695.4,438 710.3,425.5 	"/>
	<path class="st19" d="M741.9,387.2l-24.2-14.5c-0.6-0.4-0.9-1.2-0.5-1.9l0,0c0.4-0.6,1.2-0.9,1.9-0.5l24.2,14.5
		c0.6,0.4,0.9,1.2,0.5,1.9l0,0C743.4,387.4,742.6,387.6,741.9,387.2z"/>
	<path class="st19" d="M740,390.5L715.7,376c-0.6-0.4-0.9-1.2-0.5-1.9l0,0c0.4-0.6,1.2-0.9,1.9-0.5l24.2,14.5
		c0.6,0.4,0.9,1.2,0.5,1.9l0,0C741.4,390.7,740.6,390.9,740,390.5z"/>
	<g>
		<path class="st14" d="M702.9,427c-0.6,0.9-1.8,1.2-2.7,0.7c-0.9-0.6-1.2-1.8-0.7-2.7c0.6-0.9,1.8-1.2,2.7-0.7
			C703.1,424.8,703.4,426,702.9,427z"/>
		
			<rect x="691.3" y="431.6" transform="matrix(0.5142 -0.8577 0.8577 0.5142 -31.6875 808.1384)" class="st14" width="12.3" height="1"/>
	</g>
	<polygon class="st13" points="804.6,231.9 825.7,244.6 814,264.1 	"/>
</g>
</svg>
