<?xml version="1.0" encoding="utf-8"?>
<!-- Generator: Adobe Illustrator 23.0.3, SVG Export Plug-In . SVG Version: 6.00 Build 0)  -->
<svg version="1.1" id="fa5e9963-be56-4fcb-a961-77b5aada95f1"
	 xmlns="http://www.w3.org/2000/svg" xmlns:xlink="http://www.w3.org/1999/xlink" x="0px" y="0px" viewBox="0 0 1013.6 769.8"
	 style="enable-background:new 0 0 1013.6 769.8;" xml:space="preserve">
<style type="text/css">
	.st0{fill:#0E587A;}
	.st1{fill:#541D18;}
	.st2{fill:#FBD8A1;}
	.st3{fill:#FBB03B;}
	.st4{fill:#FBE1B7;}
	.st5{fill:#913229;}
	.st6{fill:#FFC756;}
	.st7{fill:#CC5145;}
	.st8{fill:#FBE0B5;}
	.st9{fill:#F7951E;}
</style>
<title>buffer</title>
<g>
	<path class="st0" d="M817.8,737.3H236.6c-17.7,3.3-51.3,10.1-40.6,14.1c4.9,1.8,311.5,11.1,364.6,11.1
		c46.1,0,223.5-11.6,257.2-18.9V737.3z"/>
</g>
<g>
	<path class="st1" d="M585.1,419.1c0.2-31.9-57-22.7-64.6-81.3c-4.1-31.5-2.7-263.8,2.4-283.2L508,57.3v-0.1l-0.2,0l-0.2,0v0.1
		L493.4,55c5.1,19.4,5.8,251.4,1.7,282.8c-7.6,58.5-64.7,49.3-64.6,81.3c49.9,5.2,72.9,1.6,77.3,0.8
		C512.2,420.7,535.2,424.3,585.1,419.1z"/>
	<g>
		<g>
			<g>
				<path class="st2" d="M778.3,253.7c-0.7,0.3-18.1-40-38.8-90c-20.8-50-37.1-90.7-36.4-91c0.7-0.3,18.1,40,38.8,90
					C762.7,212.7,779,253.4,778.3,253.7z"/>
			</g>
		</g>
	</g>
	<g>
		<g>
			<g>
				<path class="st2" d="M624.1,253.7c-0.7-0.3,15.7-40.9,36.5-90.8s38.3-90.1,39-89.8c0.7,0.3-15.7,40.9-36.5,90.8
					S624.8,254,624.1,253.7z"/>
			</g>
		</g>
	</g>
	<path class="st3" d="M778.8,253.2c-1.9,7.7-20.5,40.2-82.3,41.1c-61.9,1-78.5-37.2-78.5-41.6C621.2,248.3,777.8,247.9,778.8,253.2z
		"/>
	<g>
		<g>
			<g>
				<path class="st4" d="M643.5,277.2c0-0.1,1.5-0.2,4.3-0.3c2.8-0.1,6.8-0.1,11.8-0.2c9.9-0.1,23.7-0.1,38.8-0.1
					c15.2,0.1,28.9,0.3,38.8,0.6c5,0.1,9,0.3,11.8,0.5c1.4,0.1,2.5,0.2,3.2,0.3c0.7,0.1,1.1,0.1,1.1,0.2c0,0.1-1.5,0.1-4.3,0.1
					c-2.8,0-6.8,0-11.8-0.1c-9.9,0-23.7-0.1-38.8-0.2c-15.2-0.1-28.9-0.2-38.8-0.3c-5-0.1-9-0.1-11.8-0.2
					C645,277.4,643.5,277.3,643.5,277.2z"/>
			</g>
		</g>
	</g>
	<g>
		<g>
			<g>
				<path class="st4" d="M625,256.1c0-0.1,1.2-0.2,3.4-0.2c2.2-0.1,5.4-0.2,9.4-0.4c7.9-0.4,18.9-0.8,31-0.8c12.1,0,23.1,0.5,31,1.1
					c4,0.3,7.2,0.6,9.4,0.8c2.2,0.2,3.4,0.4,3.4,0.5c0,0.1-1.2,0.1-3.5,0c-2.2-0.1-5.4-0.2-9.4-0.4c-7.9-0.3-18.9-0.7-30.9-0.7
					c-12.1,0-23,0.3-31,0.4c-4,0.1-7.2,0.1-9.4,0C626.3,256.3,625,256.2,625,256.1z"/>
			</g>
		</g>
	</g>
	<g>
		<g>
			<g>
				<path class="st2" d="M236.6,253.7c-0.7-0.3,15.6-41,36.4-91c20.8-50,38.1-90.2,38.8-90c0.7,0.3-15.6,41-36.4,91
					C254.7,213.7,237.3,254,236.6,253.7z"/>
			</g>
		</g>
	</g>
	<g>
		<g>
			<g>
				<path class="st2" d="M390.9,253.7c-0.7,0.3-18.1-39.9-39-89.8C331,114,314.7,73.3,315.3,73.1c0.7-0.3,18.1,39.9,39,89.8
					C375.2,212.7,391.5,253.4,390.9,253.7z"/>
			</g>
		</g>
	</g>
	<path class="st3" d="M236.2,253.2c1.9,7.7,20.5,40.2,82.3,41.1c61.9,1,78.5-37.2,78.5-41.6C393.7,248.3,237.1,247.9,236.2,253.2z"
		/>
	<path class="st5" d="M495.9,26.9c-10.3,3.8-75,2.8-184,32.7c-24-13.1-33.5,0.9-0.9,9c3.5,5.2,191.9-10.8,191.9-10.8L495.9,26.9z"/>
	<path class="st5" d="M519.4,26.9c10.3,3.8,75,2.8,184,32.7c24-13.1,33.5,0.9,0.9,9c-3.5,5.2-191.9-10.8-191.9-10.8L519.4,26.9z"/>
	<path class="st6" d="M508.1,9.3c-0.1,0-0.2,0-0.3,0c-0.1,0-0.2,0-0.3,0C491.7,9.2,480,15,488.4,37.9c9.5,26,15.7,31.6,19.2,31.9
		c0,0,0,0,0,0c0.1,0,0.1,0,0.2,0c0.1,0,0.1,0,0.2,0c0,0,0,0,0,0c3.4-0.3,9.6-5.9,19.2-31.9C535.5,15,523.9,9.2,508.1,9.3z"/>
	<path class="st5" d="M485.6,91.4c-1.3,3.9-1,13.6,0.6,14.2c1.6,0.6,43.8,1,44.1,0c0.3-1,1-12.9-0.3-14.2
		C528.7,90.2,489.4,87.9,485.6,91.4z"/>
	<g>
		<path class="st2" d="M507.6,26.1c-12.7,0.7-10.7,19.9-1.2,21.5C521.7,50.3,521.2,25.4,507.6,26.1z"/>
	</g>
	<path class="st5" d="M417.6,434c-1.3-7.7-2.9-16.8,13-17.1c15.9-0.3,89.5,0,101.2,0c11.7,0,58.4-2.3,61.6,1.9
		c3.2,4.2,2.5,16.1,2.5,16.1S430,440.7,417.6,434z"/>
	<path class="st3" d="M402.6,445.2c-0.6-6.8,2-10.3,3.5-11c1.5-0.6,19.1-0.3,27.1-0.3c8,0,152.3,0,157.9-0.6
		c5.7-0.6,18.9-0.9,19.3,2.3c0.3,2.6,1.2,9,1.2,9S403.2,447.2,402.6,445.2z"/>
	<g>
		<g>
			<g>
				<path class="st4" d="M371.5,277.2c0,0.1-1.5,0.2-4.3,0.3c-2.8,0.1-6.8,0.2-11.8,0.2c-9.9,0.1-23.7,0.2-38.8,0.3
					c-15.2,0.1-28.9,0.1-38.8,0.2c-5,0-9,0-11.8,0.1c-2.8,0-4.3,0-4.3-0.1c0,0,0.4-0.1,1.1-0.2c0.7-0.1,1.8-0.2,3.2-0.3
					c2.8-0.2,6.8-0.3,11.8-0.5c9.9-0.3,23.7-0.5,38.8-0.6c15.2-0.1,28.9,0,38.8,0.1c5,0.1,9,0.1,11.8,0.2
					C370,277,371.5,277.1,371.5,277.2z"/>
			</g>
		</g>
	</g>
	<g>
		<g>
			<g>
				<path class="st4" d="M328.3,254.3c0,0.4-4.1,0.9-9.1,1.2c-5.1,0.3-9.2,0.2-9.2-0.2c0-0.4,4.1-0.9,9.1-1.2
					C324.2,253.9,328.3,254,328.3,254.3z"/>
			</g>
		</g>
	</g>
	<g>
		<g>
			<g>
				<path class="st4" d="M300.4,255.6c0,0.4-13.1,0.9-29.3,1.3c-16.2,0.3-29.4,0.3-29.4,0c0-0.4,13.1-0.9,29.3-1.3
					S300.4,255.3,300.4,255.6z"/>
			</g>
		</g>
	</g>
	<path class="st1" d="M310.6,49.5c0,9.3-1.3,27.7,0,28.7c1.3,1,6.3,0,6.3-1.3c0-1.3,0.6-26.8,0-27.7
		C316.3,48.2,310.6,47.8,310.6,49.5z"/>
	<g>
		<g>
			<g>
				<path class="st7" d="M517,94.5c0,0.4-6.3,0.6-14,0.7c-7.7,0.1-14,0.1-14-0.2c0-0.4,6.3-1,14-1.1C510.7,93.8,517,94.2,517,94.5z"
					/>
			</g>
		</g>
	</g>
	<g>
		<g>
			<g>
				<path class="st7" d="M435.9,39.4c0,0.1-1.1,0.3-3,0.7c-1.9,0.4-4.8,0.9-8.2,1.5c-7,1.2-16.6,2.8-27.2,4.9
					c-2.6,0.5-5.2,1-7.7,1.6c-2.5,0.5-4.9,1.1-7.2,1.4c-4.6,0.8-8.8,1.2-12.3,1.6c-3.5,0.4-6.3,0.8-8.3,1c-2,0.3-3,0.4-3.1,0.3
					c0-0.1,1-0.4,3-0.8c1.9-0.4,4.8-0.9,8.3-1.5c3.5-0.5,7.7-1.1,12.2-1.9c2.3-0.4,4.7-0.9,7.1-1.5c2.5-0.6,5.1-1.1,7.7-1.6
					c10.6-2.1,20.3-3.5,27.3-4.5c3.5-0.5,6.3-0.9,8.3-1.1C434.8,39.4,435.9,39.3,435.9,39.4z"/>
			</g>
		</g>
	</g>
	<g>
		<g>
			<g>
				<path class="st7" d="M447.3,37c0,0.4-1.5,0.9-3.5,1.3c-2,0.5-3.7,0.4-3.8,0c0-0.4,1.5-0.9,3.5-1.3
					C445.5,36.6,447.3,36.7,447.3,37z"/>
			</g>
		</g>
	</g>
	<g>
		<g>
			<g>
				<path class="st7" d="M587.9,39.6c0,0.2-2.5,0.2-6.6-0.1c-4.1-0.2-9.7-0.8-15.9-1.2c-6.2-0.4-11.8-1.2-15.9-1.8
					c-4-0.6-6.5-1-6.5-1.2c0-0.2,2.5-0.1,6.6,0.3c4.1,0.3,9.7,1,15.8,1.4c6.2,0.4,11.8,1.1,15.9,1.6C585.4,39,588,39.4,587.9,39.6z"
					/>
			</g>
		</g>
	</g>
	<g>
		<g>
			<g>
				<path class="st1" d="M487.7,54.1c0,0.1-1.3,0.3-3.7,0.6c-2.4,0.3-5.9,0.7-10.2,1.1c-8.6,0.8-20.6,1.8-33.8,2.8
					c-13.2,1-25.2,1.7-33.9,2.2c-4.3,0.2-7.8,0.4-10.3,0.4c-2.4,0.1-3.8,0.1-3.8,0c0-0.1,1.3-0.3,3.7-0.5c2.4-0.2,5.9-0.5,10.2-0.9
					c8.7-0.7,20.6-1.6,33.8-2.6c13.2-0.9,25.2-1.8,33.8-2.4c4.3-0.3,7.8-0.5,10.3-0.7C486.4,54.1,487.7,54,487.7,54.1z"/>
			</g>
		</g>
	</g>
	<g>
		<g>
			<g>
				<path class="st1" d="M591.5,59.9c0,0.1-0.9,0.1-2.6,0c-1.7-0.1-4.1-0.2-7.1-0.4c-6-0.4-14.3-1.1-23.4-1.9
					c-9.1-0.8-17.4-1.5-23.4-2.1c-3-0.3-5.4-0.5-7.1-0.6c-1.7-0.1-2.6-0.2-2.6-0.3c0-0.1,0.9-0.2,2.6-0.2c1.7,0,4.1,0.1,7.1,0.2
					c6,0.3,14.3,0.9,23.4,1.7c9.1,0.8,17.4,1.6,23.4,2.3c3,0.3,5.4,0.6,7.1,0.9C590.6,59.7,591.5,59.8,591.5,59.9z"/>
			</g>
		</g>
	</g>
	<g>
		<g>
			<g>
				<path class="st1" d="M521.5,102.3c0,0.4-4.9,0.5-11,0.7c-6.1,0.2-11.1-0.1-11.1-0.4c0-0.4,4.9-0.7,11-0.9
					C516.6,101.4,521.5,101.9,521.5,102.3z"/>
			</g>
		</g>
	</g>
	<g>
		<g>
			<g>
				<path class="st4" d="M493.2,38.9c-0.2,0-1-1.8-2-5c-0.5-1.6-1-3.5-1.3-5.7c-0.3-2.2-0.4-4.7,0.4-7.3c0.5-1.2,1.1-2.5,2-3.4
					c0.4-0.5,0.9-0.9,1.4-1.2c0.5-0.4,1-0.7,1.5-1c2-1.1,4-1.5,5.6-1.8c1.7-0.2,3.1-0.1,4,0.1c0.9,0.3,1.3,0.6,1.3,0.7
					c0,0.1-0.5-0.1-1.4-0.2c-0.9-0.1-2.2,0-3.7,0.3c-1.5,0.3-3.4,0.9-5.2,1.9c-0.4,0.3-0.9,0.6-1.3,0.9c-0.4,0.3-0.9,0.6-1.2,1.1
					c-0.8,0.8-1.2,1.8-1.7,2.9c-0.7,2.2-0.6,4.6-0.4,6.7c0.2,2.1,0.7,4,1,5.6C492.9,36.8,493.4,38.8,493.2,38.9z"/>
			</g>
		</g>
	</g>
	<g>
		<g>
			<g>
				<path class="st4" d="M496.8,49.3c-0.3,0.2-1.2-0.9-1.7-2.3c-0.5-1.5-0.6-2.7-0.3-2.8c0.4-0.1,1,1,1.5,2.4
					C496.8,48,497.1,49.1,496.8,49.3z"/>
			</g>
		</g>
	</g>
	<g>
		<g>
			<g>
				<path class="st5" d="M496.5,364c0.1,0-0.3,1-1.1,2.8c-0.4,0.9-1,1.9-1.7,3.1c-0.3,0.6-0.8,1.2-1.2,1.9c-0.4,0.7-0.9,1.4-1.4,2
					c-2.1,2.8-4.9,5.9-8.5,8.8c-3.6,2.9-7.8,5.7-12.4,8.4c-2.3,1.3-4.6,2.6-6.8,3.7c-2.2,1.2-4.3,2.3-6.4,3.3
					c-4.2,1.9-7.9,3.5-10.8,5.4c-1.4,0.9-2.6,1.9-3.5,2.9c-0.9,1-1.5,2-1.8,2.8c-0.6,1.8-0.4,2.9-0.6,2.9c0,0-0.1-0.3-0.2-0.8
					c0-0.5,0-1.3,0.2-2.3c0.3-1,0.9-2.1,1.8-3.2c0.9-1.1,2.1-2.1,3.6-3.1c2.9-2,6.7-3.7,10.8-5.7c2-1,4.1-2.2,6.3-3.4
					c2.2-1.2,4.4-2.4,6.7-3.7c4.5-2.6,8.7-5.4,12.3-8.2c3.5-2.8,6.4-5.7,8.6-8.4C494.7,367.9,496.3,363.8,496.5,364z"/>
			</g>
		</g>
	</g>
	<g>
		<g>
			<g>
				<path class="st5" d="M453.1,410.4c0,0.4-2,0.6-4.3,0.8c-2.3,0.2-4.1,0.8-4.3,0.5c-0.1-0.2,0.3-0.5,1-0.9
					c0.7-0.4,1.9-0.7,3.1-0.9C451.1,409.7,453.1,410.1,453.1,410.4z"/>
			</g>
		</g>
	</g>
	<g>
		<g>
			<g>
				<path class="st7" d="M473,420.1c0,0.2-2.8,0.3-7.3,0.5c-4.5,0.1-10.7,0.3-17.6,0.5c-6.9,0.2-13.1,0.4-17.6,0.7
					c-4.5,0.2-7.3,0.4-7.3,0.2c0-0.2,2.7-0.7,7.2-1.2c4.5-0.5,10.7-0.8,17.6-1.1c6.9-0.2,13.1-0.2,17.6-0.1
					C470.3,419.7,473.1,419.9,473,420.1z"/>
			</g>
		</g>
	</g>
	<g>
		<g>
			<g>
				<path class="st7" d="M482.9,420.1c0,0.4-0.9,0.6-1.9,0.7c-1,0.1-1.8,0-1.9-0.4c-0.1-0.3,0.7-0.9,1.8-0.9
					C482,419.4,482.9,419.7,482.9,420.1z"/>
			</g>
		</g>
	</g>
	<g>
		<g>
			<g>
				<path class="st7" d="M580.6,420.4c0,0.4-7.3,0.6-16.3,0.5s-16.3-0.5-16.3-0.8c0-0.4,7.3-0.6,16.3-0.5S580.6,420.1,580.6,420.4z"
					/>
			</g>
		</g>
	</g>
	<g>
		<g>
			<g>
				<path class="st4" d="M453,437.5c0,0.1-0.6,0.3-1.7,0.5c-1.1,0.2-2.7,0.4-4.8,0.6c-4,0.3-9.6,0.5-15.8,0.5
					c-6.2,0-11.7-0.1-15.8-0.3c-4-0.2-6.5-0.4-6.5-0.6c0-0.2,2.5-0.3,6.5-0.4c4-0.1,9.6-0.1,15.7-0.1c6.1,0,11.7,0,15.7-0.1
					c2,0,3.6-0.1,4.8-0.2C452.3,437.4,453,437.4,453,437.5z"/>
			</g>
		</g>
	</g>
	<g>
		<g>
			<g>
				<path class="st4" d="M466.8,437.7c0,0.2-0.4,0.4-1.2,0.6c-0.8,0.2-1.9,0.2-3.1,0.1c-2.4-0.2-4.2-0.3-4.3-0.6
					c0-0.2,0.5-0.4,1.2-0.6c0.8-0.2,1.9-0.2,3.1-0.1C464.9,437.3,466.7,437.4,466.8,437.7z"/>
			</g>
		</g>
	</g>
	<path class="st1" d="M704.4,49.5c0,9.3,1.3,27.7,0,28.7c-1.3,1-6.3,0-6.3-1.3c0-1.3-0.6-26.8,0-27.7
		C698.7,48.2,704.4,47.8,704.4,49.5z"/>
</g>
<g>
	<g>
		<path class="st2" d="M754.8,454.3c0,9.4,1.6,83.3,1.6,83.3s-176.1,4.7-202.8-3.1c-26.7-7.9-28.8-36.7-23.6-50.8
			c5.2-14.2,16.8-27.8,29.9-29.9C572.9,451.7,745.4,454.8,754.8,454.3z"/>
	</g>
	<path class="st1" d="M273.7,443.8c-31,0-57.1,4.7-56.6,50.8c0.5,46.1,28.8,48.2,54.5,48.7c25.7,0.5,330.2,3.7,352.7,2.6
		c22.5-1,145.7-3.7,145.7-3.7c11.5,0.5,13.1-12.1-1-11c-14.2,1-160.9,2.1-180.8,3.1c-19.9,1-47.2-6.8-50.3-35.6
		c-3.1-28.8,17.3-44.5,38.3-43.5c21,1,121.1,1,138.9,2.1c17.8,1,47.2-0.9,54-2.4c6.8-1.6,6.3-9.4-2.6-9.4
		c-8.9,0-181.9-3.8-219.6-1.8C509,445.9,315.6,443.8,273.7,443.8z"/>
	<g>
		<g>
			<g>
				<path class="st8" d="M295.8,540.3c0,0.2-1.9,0.4-5.3-0.2c-3.3-0.6-8.2-2-13.3-5.6c-2.5-1.8-5.1-4.1-7.4-6.8
					c-2.4-2.8-4.5-6.1-6.2-9.7c-3.6-7.3-5.7-16.2-5.9-25.5c-0.2-9.3,1.5-18.3,4.8-25.8c0.8-1.9,1.7-3.6,2.7-5.3
					c1-1.7,2.1-3.2,3.2-4.7c2.3-2.9,4.8-5.2,7.4-6.9c5.2-3.5,10.3-4.5,13.7-4.7c3.4-0.2,5.3,0.3,5.3,0.5c0,0.3-1.9,0.4-5.1,1
					c-3.2,0.6-7.7,2-12.3,5.4c-4.5,3.4-8.8,9-11.6,16c-2.8,7-4.4,15.5-4.2,24.3c0.2,8.8,2.1,17.2,5.2,24.1c3.1,6.9,7.5,12.3,12,15.9
					c4.5,3.6,8.9,5.3,12,6.3C294.1,539.6,295.9,540,295.8,540.3z"/>
			</g>
		</g>
	</g>
	<g>
		<g>
			<g>
				<path class="st8" d="M274.5,539.3c0,0.2-1.9,0.4-5.2-0.1c-1.6-0.3-3.6-0.8-5.9-1.6c-2.2-0.9-4.7-2.1-7.2-3.8
					c-5-3.4-9.9-9.1-13.2-16.4c-3.3-7.3-5-16-4.9-25.1c0.1-9.1,2-17.8,5.1-25.1c3.1-7.3,7.6-13.2,12.4-17c2.4-1.9,4.8-3.2,7-4.1
					c2.2-0.9,4.3-1.4,5.9-1.6c3.3-0.4,5.2-0.1,5.2,0.2c0,0.3-1.8,0.5-4.9,1.3c-1.5,0.4-3.3,1.1-5.3,2.1c-2,1-4.1,2.4-6.2,4.3
					c-4.2,3.7-8.1,9.3-10.8,16.2c-2.8,6.9-4.4,15.1-4.5,23.7c-0.1,8.6,1.4,16.8,4.3,23.6c2.9,6.8,7.1,12.2,11.5,15.6
					c2.2,1.7,4.4,3,6.4,4c2,1,3.8,1.6,5.4,2.1C272.8,538.6,274.6,539,274.5,539.3z"/>
			</g>
		</g>
	</g>
	<path class="st5" d="M768.9,531.3c-14.2,1-160.9,2.1-180.8,3.1c-19.9,1-46.9-6.3-50.1-35.1c-3.1-28.8,17-43.8,39.8-43.5
		c21,0.2,119.2,0.5,137.1,1.6c17.8,1,47.2-0.9,54-2.4c6.8-1.6,6.3-9.4-2.6-9.4c-5.5,0-72.6-1.4-132.5-2.1l-64.8,0.3
		c-33,0-47.4,22-45.3,54.5c1.9,29.2,19.4,44.4,46.8,47.5c28.3,0.3,48.6,0.4,53.8,0.1c22.5-1,145.7-3.7,145.7-3.7
		C781.5,542.9,783.1,530.3,768.9,531.3z"/>
	<g>
		<g>
			<g>
				<path class="st3" d="M754.3,467.9c0,0-0.7,0.1-2,0.1c-1.3,0-3.2,0.1-5.7,0.2c-4.9,0.1-12,0.2-20.8,0.3
					c-17.6,0.2-41.9,0.4-68.7,0.6c-26.8,0.1-51.2,0.2-68.7,0.2c-8.8,0-15.9-0.1-20.8-0.1c-2.5,0-4.4-0.1-5.7-0.1c-1.3,0-2-0.1-2-0.1
					c0,0,0.7-0.1,2-0.1c1.3,0,3.2-0.1,5.7-0.2c4.9-0.1,12-0.2,20.8-0.3c17.6-0.2,41.9-0.4,68.7-0.6c26.8-0.1,51.1-0.2,68.7-0.2
					c8.8,0,15.9,0.1,20.8,0.1c2.5,0,4.4,0.1,5.7,0.1C753.6,467.8,754.3,467.9,754.3,467.9z"/>
			</g>
		</g>
	</g>
	<g>
		<g>
			<g>
				<path class="st3" d="M751.8,478.8c0,0.1-1.1,0.2-3.2,0.4c-2.1,0.2-5.1,0.4-8.8,0.5c-7.5,0.3-17.8,0.4-29.1,0.4
					c-11.4,0-21.6,0-29.1,0.2c-3.7,0.1-6.7,0.2-8.8,0.3c-2.1,0.1-3.2,0.1-3.2,0c0-0.1,1.1-0.3,3.2-0.5c2.1-0.2,5.1-0.5,8.8-0.7
					c7.4-0.4,17.8-0.6,29.1-0.6c11.4,0,21.6,0.1,29.1,0c3.7-0.1,6.7-0.1,8.8-0.1C750.7,478.7,751.8,478.7,751.8,478.8z"/>
			</g>
		</g>
	</g>
	<g>
		<g>
			<g>
				<path class="st3" d="M752.2,520.7c0,0-0.5,0.1-1.4,0.2c-0.9,0.1-2.3,0.1-4.2,0.2c-3.6,0.1-8.8,0.3-15.3,0.5
					c-12.9,0.3-30.7,0.7-50.4,1c-19.7,0.3-37.5,0.4-50.4,0.4c-6.5,0-11.7-0.1-15.3-0.1c-1.8,0-3.2-0.1-4.2-0.1
					c-0.9,0-1.4-0.1-1.4-0.1c0,0,0.5-0.1,1.4-0.1s2.3-0.1,4.2-0.1c3.6-0.1,8.8-0.2,15.3-0.3c12.9-0.2,30.7-0.5,50.4-0.7
					c19.7-0.3,37.5-0.5,50.4-0.6c6.5,0,11.7-0.1,15.3,0c1.8,0,3.2,0,4.2,0.1C751.7,520.6,752.2,520.6,752.2,520.7z"/>
			</g>
		</g>
	</g>
	<g>
		<g>
			<g>
				<path class="st3" d="M751.1,510.2c0,0-0.7,0.1-2.1,0.2c-1.4,0.1-3.3,0.2-5.9,0.3c-5.1,0.2-12.6,0.6-21.8,0.9
					c-18.4,0.6-43.8,1.3-71.9,1.9c-28.1,0.6-53.5,0.8-71.9,0.9c-9.2,0-16.7,0-21.8-0.1c-2.6,0-4.6-0.1-5.9-0.1
					c-1.4,0-2.1-0.1-2.1-0.1c0,0,0.7-0.1,2.1-0.1c1.4,0,3.4-0.1,5.9-0.1c5.1-0.1,12.6-0.2,21.8-0.3c18.4-0.3,43.8-0.8,71.9-1.2
					c28.1-0.6,53.5-1.1,71.9-1.5c9.2-0.2,16.6-0.3,21.8-0.5c2.6,0,4.6-0.1,5.9-0.1C750.4,510.1,751.1,510.1,751.1,510.2z"/>
			</g>
		</g>
	</g>
	<g>
		<g>
			<g>
				<path class="st8" d="M514.2,545.1c0,0.2-1.9,0.4-5.3-0.2c-3.3-0.7-8.3-2.2-13.3-6.1c-2.5-1.9-4.9-4.4-7.1-7.3
					c-2.2-2.9-4.1-6.4-5.7-10.2c-3.2-7.6-4.8-16.6-4.8-26c0-9.4,1.7-18.3,4.7-25.9c2.9-7.6,7.2-13.9,12.1-18c2.4-2,4.9-3.5,7.2-4.4
					c2.3-0.9,4.4-1.3,6.2-1.5c3.5-0.3,5.3,0.3,5.3,0.5c0,0.3-1.9,0.3-5.1,1c-1.6,0.4-3.5,1-5.5,2c-2,1-4.2,2.5-6.3,4.5
					c-4.2,3.9-8,9.9-10.5,17.2c-2.6,7.3-4.1,15.8-4.1,24.7c0,8.9,1.5,17.4,4.2,24.6c1.4,3.6,3.1,6.8,5,9.6c1.9,2.8,4,5.2,6.2,7
					c4.4,3.8,8.8,5.7,11.9,6.7C512.4,544.4,514.3,544.8,514.2,545.1z"/>
			</g>
		</g>
	</g>
	<g>
		<g>
			<g>
				<path class="st8" d="M492.9,544.1c0,0.2-1.9,0.4-5.2-0.2c-1.6-0.3-3.6-0.8-5.9-1.7c-2.2-0.9-4.7-2.1-7.2-3.9
					c-5-3.5-9.9-9.2-13.2-16.5c-3.4-7.3-5.4-16-5.7-25.1c-0.3-9.2,1-17.9,3.5-25.5c2.5-7.5,6.3-13.9,10.7-18.2
					c2.2-2.2,4.5-3.8,6.6-4.9c2.2-1.1,4.2-1.7,5.9-2c3.4-0.5,5.2-0.1,5.2,0.1c0,0.3-1.8,0.5-4.8,1.4c-3,1-7.1,3.1-10.9,7.3
					c-3.8,4.2-7,10.2-9.2,17.4c-2.2,7.2-3.3,15.5-3,24.2c0.3,8.7,2.1,16.9,5.1,23.7c3,6.9,7.2,12.2,11.6,15.8
					c2.2,1.8,4.4,3.1,6.4,4.1c2,1,3.8,1.7,5.4,2.2C491.2,543.4,492.9,543.8,492.9,544.1z"/>
			</g>
		</g>
	</g>
	<g>
		<g>
			<g>
				<path class="st3" d="M621.8,502.8c0,0.1-1,0.2-2.9,0.3c-1.9,0.1-4.6,0.2-7.9,0.2c-6.7,0.1-15.9,0.3-26.1,0.3
					c-10.2,0-19.4,0-26.1-0.2c-3.3-0.1-6-0.2-7.9-0.3c-1.9-0.1-2.9-0.2-2.9-0.3c0-0.1,1-0.1,2.9-0.2c1.9,0,4.6-0.1,7.9-0.1
					c6.7-0.1,15.9-0.2,26.1-0.2c10.2,0,19.4,0,26.1,0.1c3.3,0,6,0.1,7.9,0.2C620.8,502.7,621.8,502.8,621.8,502.8z"/>
			</g>
		</g>
	</g>
</g>
<g>
	<g>
		<path class="st2" d="M241.6,552.8c0,9.4-1.6,83.3-1.6,83.3s176.1,4.7,202.8-3.1c26.7-7.9,28.8-36.7,23.6-50.8
			c-5.2-14.2-16.8-27.8-29.9-29.9C423.5,550.2,251,553.3,241.6,552.8z"/>
	</g>
	<path class="st3" d="M722.7,542.3c31,0,57.1,4.7,56.6,50.8c-0.5,46.1-28.2,49.3-53.9,49.8c-25.7,0.5-330.8,2.6-353.3,1.6
		c-22.5-1.1-145.6-1.3-145.6-1.3c-11.5,0.5-13.2-14.4,1-13.4c14.1,1,160.9,2.1,180.8,3.1c19.9,1.1,47.2-6.8,50.3-35.6
		c3.1-28.8-17.3-44.6-38.3-43.5c-21,1-121.1,1-138.9,2.1c-17.8,1-47.2-0.9-54-2.4c-6.8-1.6-6.3-9.4,2.6-9.4
		c8.9,0,181.9-3.8,219.6-1.7C487.4,544.4,680.8,542.3,722.7,542.3z"/>
	<g>
		<g>
			<g>
				<path class="st5" d="M690.1,638.8c0-0.3,1.8-0.7,4.9-1.7c3.1-1,7.5-2.8,12-6.3c4.5-3.5,8.9-8.9,12-15.9c3.1-6.9,5-15.3,5.2-24.1
					c0.2-8.8-1.3-17.2-4.2-24.3c-2.8-7.1-7.1-12.6-11.6-16c-4.5-3.4-9.1-4.8-12.3-5.4c-3.2-0.6-5.1-0.7-5.1-1c0-0.2,1.8-0.7,5.3-0.5
					c3.4,0.1,8.5,1.2,13.7,4.7c2.6,1.8,5.1,4.1,7.4,6.9c1.2,1.4,2.2,3,3.2,4.7c1,1.7,1.9,3.5,2.7,5.3c3.2,7.5,5,16.4,4.8,25.8
					c-0.2,9.3-2.3,18.2-5.9,25.5c-1.8,3.7-3.9,7-6.2,9.7c-2.3,2.8-4.9,5.1-7.4,6.8c-5.1,3.6-10,5-13.3,5.6
					C692,639.2,690.1,639,690.1,638.8z"/>
			</g>
		</g>
	</g>
	<path class="st9" d="M227.5,629.9c14.1,1,160.9,2.1,180.8,3.1c19.9,1.1,46.9-6.3,50.1-35.1c3.1-28.8-17-43.8-39.8-43.5
		c-21,0.2-119.2,0.5-137.1,1.6c-17.8,1-47.2-0.9-54-2.4c-6.8-1.6-6.3-9.4,2.6-9.4c5.5,0,72.6-1.4,132.5-2.1l64.8,0.3
		c33,0,47.4,22,45.3,54.5c-1.9,29.2-19.4,44.3-46.8,47.5c-28.3,0.3-48.6,0.4-53.8,0.1c-22.5-1.1-146.7-0.8-146.7-0.8
		C213.9,644.3,213.3,628.8,227.5,629.9z"/>
	<g>
		<g>
			<g>
				<path class="st3" d="M242.1,566.4c0,0,0.7-0.1,2-0.1c1.3,0,3.2-0.1,5.7-0.1c4.9,0,12-0.1,20.8-0.1c17.6,0,41.9,0,68.7,0.2
					c26.8,0.1,51.1,0.3,68.7,0.6c8.8,0.1,15.9,0.2,20.8,0.3c2.5,0.1,4.4,0.1,5.7,0.2c1.3,0,2,0.1,2,0.1c0,0-0.7,0.1-2,0.1
					c-1.3,0-3.2,0.1-5.7,0.1c-4.9,0-12,0.1-20.8,0.1c-17.6,0-41.9,0-68.7-0.2s-51.2-0.3-68.7-0.6c-8.8-0.1-15.9-0.2-20.8-0.3
					c-2.5-0.1-4.4-0.1-5.7-0.2C242.8,566.5,242.1,566.5,242.1,566.4z"/>
			</g>
		</g>
	</g>
	<g>
		<g>
			<g>
				<path class="st3" d="M244.6,577.4c0-0.1,1.2-0.1,3.2-0.1c2.1,0,5.1,0.1,8.8,0.1c7.4,0.1,17.7,0,29.1,0c11.4,0,21.7,0.1,29.1,0.6
					c3.7,0.2,6.7,0.4,8.8,0.7c2.1,0.2,3.2,0.4,3.2,0.5c0,0.1-1.2,0.1-3.2,0c-2.1-0.1-5.1-0.2-8.8-0.3c-7.4-0.2-17.7-0.2-29.1-0.2
					c-11.4,0-21.7,0-29.1-0.4c-3.7-0.2-6.7-0.3-8.8-0.5C245.7,577.6,244.6,577.5,244.6,577.4z"/>
			</g>
		</g>
	</g>
	<g>
		<g>
			<g>
				<path class="st3" d="M244.2,619.2c0,0,0.5-0.1,1.5-0.1c1,0,2.4,0,4.2-0.1c3.6,0,8.8,0,15.3,0c12.9,0.1,30.7,0.3,50.4,0.6
					c19.7,0.3,37.5,0.6,50.4,0.7c6.4,0.1,11.7,0.2,15.3,0.3c1.8,0,3.2,0.1,4.2,0.1c0.9,0,1.4,0.1,1.4,0.1c0,0-0.5,0.1-1.4,0.1
					s-2.4,0.1-4.2,0.1c-3.6,0.1-8.8,0.1-15.3,0.1c-12.9,0-30.7-0.1-50.4-0.4c-19.7-0.3-37.5-0.7-50.4-1c-6.4-0.2-11.7-0.3-15.3-0.5
					c-1.8-0.1-3.2-0.1-4.2-0.2C244.7,619.3,244.2,619.2,244.2,619.2z"/>
			</g>
		</g>
	</g>
	<g>
		<g>
			<g>
				<path class="st3" d="M245.3,608.7c0,0,0.7-0.1,2.1-0.1c1.4,0,3.4,0,5.9,0.1c5.1,0.1,12.6,0.3,21.8,0.5
					c18.4,0.4,43.8,0.9,71.9,1.5c28.1,0.5,53.5,0.9,71.9,1.2c9.2,0.1,16.6,0.3,21.8,0.3c2.6,0.1,4.6,0.1,5.9,0.1
					c1.4,0,2.1,0.1,2.1,0.1c0,0-0.7,0.1-2.1,0.1c-1.4,0-3.4,0.1-5.9,0.1c-5.1,0.1-12.6,0.1-21.8,0.1c-18.4,0-43.8-0.3-71.9-0.9
					c-28.1-0.5-53.5-1.2-71.9-1.9c-9.2-0.3-16.6-0.6-21.8-0.9c-2.6-0.1-4.6-0.3-5.9-0.3C246,608.8,245.3,608.8,245.3,608.7z"/>
			</g>
		</g>
	</g>
	<g>
		<g>
			<g>
				<path class="st5" d="M517.1,642.6c0-0.3,1.7-0.7,4.8-1.7c1.5-0.5,3.3-1.2,5.4-2.2c2-1,4.2-2.4,6.4-4.1
					c4.4-3.5,8.6-8.9,11.6-15.8c3-6.8,4.8-15.1,5.1-23.7c0.3-8.7-0.9-17-3-24.2c-2.2-7.2-5.5-13.2-9.2-17.4
					c-3.7-4.2-7.9-6.3-10.9-7.3c-3-1-4.9-1.1-4.8-1.4c0-0.2,1.8-0.6,5.2-0.1c1.7,0.3,3.7,0.9,5.9,2c2.2,1.1,4.5,2.7,6.6,4.9
					c4.4,4.3,8.2,10.6,10.7,18.2c2.5,7.6,3.8,16.3,3.5,25.5c-0.3,9.2-2.3,17.8-5.7,25.1c-3.4,7.3-8.2,13-13.2,16.5
					c-2.5,1.8-4.9,3-7.2,3.9c-2.2,0.9-4.2,1.4-5.9,1.7C519,643,517.1,642.8,517.1,642.6z"/>
			</g>
		</g>
	</g>
	<g>
		<g>
			<g>
				<path class="st3" d="M374.5,601.4c0-0.1,1-0.2,2.9-0.2c1.9-0.1,4.6-0.1,7.9-0.2c6.7-0.1,15.9-0.1,26.1-0.1
					c10.2,0,19.4,0.1,26.1,0.2c3.3,0.1,6,0.1,7.9,0.1c1.9,0,2.9,0.1,2.9,0.2c0,0.1-1,0.2-2.9,0.3c-1.9,0.1-4.6,0.2-7.9,0.3
					c-6.7,0.1-15.9,0.2-26.1,0.2c-10.2,0-19.4-0.1-26.1-0.3c-3.3-0.1-6-0.2-7.9-0.2C375.6,601.6,374.5,601.5,374.5,601.4z"/>
			</g>
		</g>
	</g>
</g>
<g>
	<g>
		<path class="st2" d="M754.8,654.1c0,9.4,1.6,83.3,1.6,83.3s-176.1,4.7-202.8-3.1c-26.7-7.9-28.8-36.7-23.6-50.8
			c5.2-14.1,16.8-27.8,29.9-29.9C572.9,651.5,745.4,654.7,754.8,654.1z"/>
	</g>
	<path class="st5" d="M273.7,643.7c-31,0-57.1,4.7-56.6,50.8c0.5,46.1,28.8,48.2,54.5,48.7c25.7,0.5,330.2,3.7,352.7,2.6
		c22.5-1,145.7-3.7,145.7-3.7c11.5,0.5,13.1-12.1-1-11c-14.2,1-160.9,2.1-180.8,3.1c-19.9,1-47.2-6.8-50.3-35.6
		c-3.1-28.8,17.3-44.5,38.3-43.5c21,1,121.1,1,138.9,2.1c17.8,1,47.2-0.9,54-2.4c6.8-1.6,6.3-9.4-2.6-9.4
		c-8.9,0-181.9-3.8-219.6-1.7C509,645.8,315.6,643.7,273.7,643.7z"/>
	<g>
		<g>
			<g>
				<path class="st1" d="M295.8,740.1c0,0.2-1.9,0.4-5.3-0.2c-3.3-0.6-8.2-2-13.3-5.6c-2.5-1.8-5.1-4.1-7.4-6.8
					c-2.4-2.8-4.5-6.1-6.2-9.7c-3.6-7.3-5.7-16.2-5.9-25.5c-0.2-9.3,1.5-18.3,4.8-25.8c0.8-1.9,1.7-3.6,2.7-5.3
					c1-1.7,2.1-3.2,3.2-4.7c2.3-2.9,4.8-5.2,7.4-6.9c5.2-3.5,10.3-4.5,13.7-4.7c3.4-0.2,5.3,0.3,5.3,0.5c0,0.3-1.9,0.4-5.1,1
					c-3.2,0.6-7.7,2-12.3,5.4c-4.5,3.4-8.8,9-11.6,16c-2.8,7-4.4,15.5-4.2,24.3c0.2,8.8,2.1,17.2,5.2,24.1c3.1,6.9,7.5,12.3,12,15.9
					c4.5,3.6,8.9,5.3,12,6.3C294.1,739.4,295.9,739.8,295.8,740.1z"/>
			</g>
		</g>
	</g>
	<g>
		<g>
			<g>
				<path class="st1" d="M274.5,739.1c0,0.2-1.9,0.4-5.2-0.1c-1.6-0.3-3.6-0.8-5.9-1.6c-2.2-0.9-4.7-2.1-7.2-3.8
					c-5-3.4-9.9-9.1-13.2-16.4c-3.3-7.3-5-16-4.9-25.1c0.1-9.1,2-17.8,5.1-25.1c3.1-7.3,7.6-13.2,12.4-17c2.4-1.9,4.8-3.2,7-4.1
					c2.2-0.9,4.3-1.4,5.9-1.6c3.3-0.4,5.2-0.1,5.2,0.2c0,0.3-1.8,0.5-4.9,1.3c-1.5,0.4-3.3,1.1-5.3,2.1c-2,1-4.1,2.4-6.2,4.3
					c-4.2,3.7-8.1,9.3-10.8,16.2c-2.8,6.9-4.4,15.1-4.5,23.7c-0.1,8.6,1.4,16.8,4.3,23.6c2.9,6.8,7.1,12.2,11.5,15.6
					c2.2,1.7,4.4,3,6.4,4c2,1,3.8,1.6,5.4,2.1C272.8,738.4,274.6,738.8,274.5,739.1z"/>
			</g>
		</g>
	</g>
	<path class="st1" d="M768.9,731.2c-14.2,1-160.9,2.1-180.8,3.1c-19.9,1-46.9-6.3-50.1-35.1c-3.1-28.8,17-43.8,39.8-43.5
		c21,0.2,119.2,1.5,137.1,1.6c23.3,0.1,47.3-1.3,54.2-1.7c7.3-0.5,6.3-13.4-2.6-13.4c-5.5,0-69.3,1.2-129.2,0.5l-68.4,1
		c-33,0-47.4,22-45.3,54.5c1.9,29.2,19.4,44.3,46.8,47.5c28.3,0.3,48.6,0.4,53.8,0.1c22.5-1,145.7-3.7,145.7-3.7
		C781.5,742.7,783.1,730.1,768.9,731.2z"/>
	<g>
		<g>
			<g>
				<path class="st3" d="M754.3,667.8c0,0-0.7,0.1-2,0.1c-1.3,0-3.2,0.1-5.7,0.2c-4.9,0.1-12,0.2-20.8,0.3
					c-17.6,0.2-41.9,0.4-68.7,0.6c-26.8,0.1-51.2,0.2-68.7,0.2c-8.8,0-15.9-0.1-20.8-0.1c-2.5,0-4.4-0.1-5.7-0.1c-1.3,0-2-0.1-2-0.1
					c0,0,0.7-0.1,2-0.1c1.3,0,3.2-0.1,5.7-0.2c4.9-0.1,12-0.2,20.8-0.3c17.6-0.2,41.9-0.4,68.7-0.6c26.8-0.1,51.1-0.2,68.7-0.2
					c8.8,0,15.9,0.1,20.8,0.1c2.5,0,4.4,0.1,5.7,0.1C753.6,667.7,754.3,667.7,754.3,667.8z"/>
			</g>
		</g>
	</g>
	<g>
		<g>
			<g>
				<path class="st3" d="M751.8,678.7c0,0.1-1.1,0.2-3.2,0.4c-2.1,0.2-5.1,0.4-8.8,0.5c-7.5,0.3-17.8,0.4-29.1,0.4
					c-11.4,0-21.6,0-29.1,0.2c-3.7,0.1-6.7,0.2-8.8,0.3c-2.1,0.1-3.2,0.1-3.2,0c0-0.1,1.1-0.3,3.2-0.5c2.1-0.2,5.1-0.5,8.8-0.7
					c7.4-0.4,17.8-0.6,29.1-0.6c11.4,0,21.6,0.1,29.1,0c3.7-0.1,6.7-0.1,8.8-0.1C750.7,678.6,751.8,678.6,751.8,678.7z"/>
			</g>
		</g>
	</g>
	<g>
		<g>
			<g>
				<path class="st3" d="M752.2,720.5c0,0-0.5,0.1-1.4,0.2c-0.9,0.1-2.3,0.1-4.2,0.2c-3.6,0.1-8.8,0.3-15.3,0.5
					c-12.9,0.3-30.7,0.7-50.4,1c-19.7,0.3-37.5,0.4-50.4,0.4c-6.5,0-11.7-0.1-15.3-0.1c-1.8,0-3.2-0.1-4.2-0.1s-1.4-0.1-1.4-0.1
					c0,0,0.5-0.1,1.4-0.1s2.3-0.1,4.2-0.1c3.6-0.1,8.8-0.2,15.3-0.3c12.9-0.2,30.7-0.5,50.4-0.7c19.7-0.3,37.5-0.5,50.4-0.6
					c6.5,0,11.7-0.1,15.3,0c1.8,0,3.2,0,4.2,0.1C751.7,720.4,752.2,720.5,752.2,720.5z"/>
			</g>
		</g>
	</g>
	<g>
		<g>
			<g>
				<path class="st3" d="M751.1,710c0,0-0.7,0.1-2.1,0.2c-1.4,0.1-3.3,0.2-5.9,0.3c-5.1,0.2-12.6,0.6-21.8,0.9
					c-18.4,0.6-43.8,1.3-71.9,1.9c-28.1,0.6-53.5,0.8-71.9,0.9c-9.2,0-16.7,0-21.8-0.1c-2.6,0-4.6-0.1-5.9-0.1
					c-1.4,0-2.1-0.1-2.1-0.1c0,0,0.7-0.1,2.1-0.1c1.4,0,3.4-0.1,5.9-0.1c5.1-0.1,12.6-0.2,21.8-0.3c18.4-0.3,43.8-0.8,71.9-1.2
					c28.1-0.6,53.5-1.1,71.9-1.5c9.2-0.2,16.6-0.3,21.8-0.5c2.6,0,4.6-0.1,5.9-0.1C750.4,710,751.1,710,751.1,710z"/>
			</g>
		</g>
	</g>
	<g>
		<g>
			<g>
				<path class="st1" d="M514.2,745c0,0.2-1.9,0.4-5.3-0.2c-3.3-0.7-8.3-2.2-13.3-6.1c-2.5-1.9-4.9-4.4-7.1-7.3
					c-2.2-2.9-4.1-6.4-5.7-10.2c-3.2-7.6-4.8-16.6-4.8-26c0-9.4,1.7-18.3,4.7-25.9c2.9-7.6,7.2-13.9,12.1-18c2.4-2,4.9-3.5,7.2-4.4
					c2.3-0.9,4.4-1.3,6.2-1.5c3.5-0.3,5.3,0.3,5.3,0.5c0,0.3-1.9,0.3-5.1,1c-1.6,0.4-3.5,1-5.5,2c-2,1-4.2,2.5-6.3,4.5
					c-4.2,3.9-8,9.9-10.5,17.2c-2.6,7.3-4.1,15.8-4.1,24.7c0,8.9,1.5,17.4,4.2,24.6c1.4,3.6,3.1,6.8,5,9.6c1.9,2.8,4,5.2,6.2,7
					c4.4,3.8,8.8,5.7,11.9,6.7C512.4,744.3,514.3,744.7,514.2,745z"/>
			</g>
		</g>
	</g>
	<g>
		<g>
			<g>
				<path class="st1" d="M492.9,743.9c0,0.2-1.9,0.4-5.2-0.2c-1.6-0.3-3.6-0.8-5.9-1.7c-2.2-0.9-4.7-2.1-7.2-3.9
					c-5-3.5-9.9-9.2-13.2-16.5c-3.4-7.3-5.4-16-5.7-25.1c-0.3-9.2,1-17.9,3.5-25.5c2.5-7.5,6.3-13.9,10.7-18.2
					c2.2-2.2,4.5-3.8,6.6-4.9c2.2-1.1,4.2-1.7,5.9-2c3.4-0.5,5.2-0.1,5.2,0.1c0,0.3-1.8,0.5-4.8,1.4c-3,1-7.1,3.1-10.9,7.3
					c-3.8,4.2-7,10.2-9.2,17.4c-2.2,7.2-3.3,15.5-3,24.2c0.3,8.7,2.1,16.9,5.1,23.7c3,6.9,7.2,12.2,11.6,15.8
					c2.2,1.8,4.4,3.1,6.4,4.1c2,1,3.8,1.7,5.4,2.2C491.2,743.2,492.9,743.6,492.9,743.9z"/>
			</g>
		</g>
	</g>
	<g>
		<g>
			<g>
				<path class="st3" d="M621.8,702.7c0,0.1-1,0.2-2.9,0.3c-1.9,0.1-4.6,0.2-7.9,0.2c-6.7,0.1-15.9,0.3-26.1,0.3
					c-10.2,0-19.4,0-26.1-0.2c-3.3-0.1-6-0.2-7.9-0.3c-1.9-0.1-2.9-0.2-2.9-0.3c0-0.1,1-0.1,2.9-0.2c1.9,0,4.6-0.1,7.9-0.1
					c6.7-0.1,15.9-0.2,26.1-0.2c10.2,0,19.4,0,26.1,0.1c3.3,0,6,0.1,7.9,0.2C620.8,702.5,621.8,702.6,621.8,702.7z"/>
			</g>
		</g>
	</g>
</g>
</svg>
